<?xml version="1.0" encoding="UTF-8"?>
<!DOCTYPE svg PUBLIC "-//W3C//DTD SVG 1.1//EN" "http://www.w3.org/Graphics/SVG/1.1/DTD/svg11.dtd">
<!-- Creator: CorelDRAW X5 -->
<svg xmlns="http://www.w3.org/2000/svg" xml:space="preserve" width="140mm" height="98.64mm" style="shape-rendering:geometricPrecision; text-rendering:geometricPrecision; image-rendering:optimizeQuality; fill-rule:evenodd; clip-rule:evenodd"
viewBox="0 0 14000 9864"
 xmlns:xlink="http://www.w3.org/1999/xlink">
 <defs>
  <style type="text/css">
   <![CDATA[
    .fil0 {fill:red;fill-rule:nonzero}
    .fil1 {fill:white;fill-rule:nonzero}
   ]]>
  </style>
 </defs>
 <g id="__x0023_Layer_x0020_1">
  <metadata id="CorelCorpID_0Corel-Layer"/>
  <path class="fil0" d="M13706 1542c-161,-606 -635,-1084 -1238,-1246 -1092,-294 -5470,-294 -5470,-294 0,0 -4378,0 -5470,294 -602,162 -1077,640 -1238,1246 -293,1099 -293,3392 -293,3392 0,0 0,2293 293,3392 161,606 635,1084 1238,1246 1092,294 5470,294 5470,294 0,0 4378,0 5470,-294 602,-162 1077,-640 1238,-1246 293,-1099 293,-3392 293,-3392 0,0 0,-2293 -293,-3392z"/>
  <polygon class="fil1" points="5566,7016 9225,4934 5566,2852 "/>
 </g>
</svg>
